# xmcd
#
# Track frame offsets: 
#        150
#        19560
#        36647
#        55967
#        66522
#        81885
#        102240
#        118687
#        133112
#        147207
#        163530
#        179240
#
# Disc length: 2602 seconds
#
# Revision: 7
# Processed by: cddbd v1.5.2PL0 Copyright (c) Steve Scherf et al.
# Submitted via: ExactAudioCopy v1.0b3
#
DISCID=b30a280c
DTITLE=Kristofferson, Kris - Songs Of Kristofferson
DYEAR=1979
DGENRE=Country
TTITLE0=The Silver-Tongued Devil
TTITLE1=Loving Her Was Easier (Than Anything I'll Ever Do Again)
TTITLE2=Me And Bobby McGee
TTITLE3=Help Me Make It Through The Night
TTITLE4=For The Good Times
TTITLE5=Sunday Mornin' Comin' Down
TTITLE6=You Show Me Yours (And I'll Show You Mine)
TTITLE7=The Pilgrim - Chapter 33 (Hang In, Hopper)
TTITLE8=Stranger
TTITLE9=I Got A Life Of My Own
TTITLE10=Why Me
TTITLE11=Who's To Bless And Who's To Blame
EXTD=
EXTT0=
EXTT1=
EXTT2=
EXTT3=
EXTT4=
EXTT5=
EXTT6=
EXTT7=
EXTT8=
EXTT9=
EXTT10=
EXTT11=
PLAYORDER=
